<svg xmlns="http://www.w3.org/2000/svg" width="24" height="24" fill="none" viewBox="0 0 24 24">
    <path fill="#fff" d="M16.276 0c.082 2.925-2.01 4.954-4.1 4.827C11.832 2.493 14.266 0 16.276 0zM3.157 11.893c0 3.404 2.709 10.088 5.983 10.107h.021c.814 0 1.532-.268 2.166-.505l.006-.002c.465-.174.904-.338 1.252-.338.685 0 1.1.176 1.58.38.476.203 1.015.432 1.777.432 3.115 0 5.26-5.771 5.26-6.04 0-.411-.313-.6-.616-.782l-.002-.001c-.688-.414-2.117-1.274-2.117-3.509 0-1.887 1.263-2.84 1.955-3.363l.485-.365-.337-.506c-1.437-2.16-3.829-2.332-4.617-2.332h-.006c-1.057 0-1.964.36-2.692.65l-.015.006c-.338.134-.717.284-.879.284-.274 0-.768-.181-1.245-.357-.682-.252-1.456-.536-2.18-.536-1.608 0-5.779 1.217-5.779 6.777z"/>
</svg>
