<svg xmlns="http://www.w3.org/2000/svg" width="315" height="297" fill="none" viewBox="0 0 315 297">
    <path fill="#FF9D97" d="M42.576 215.976c0-.224.059-.4.176-.528.118-.139.294-.208.528-.208h10.224c.736 0 1.43.101 2.08.304.651.203 1.248.485 1.792.848.544.352 1.035.779 1.472 1.28.438.491.806 1.024 1.104 1.6.31.576.544 1.184.704 1.824.16.629.24 1.269.24 1.92 0 .96-.176 1.899-.528 2.816-.341.917-.832 1.733-1.472 2.448-.64.715-1.408 1.296-2.304 1.744-.896.437-1.888.661-2.976.672h-4.848v7.616c0 .459-.245.688-.736.688H43.28c-.213 0-.384-.053-.512-.16-.128-.117-.192-.293-.192-.528v-22.336zm12.048 7.008c0-.32-.058-.64-.176-.96-.106-.32-.266-.603-.48-.848-.213-.256-.474-.464-.784-.624-.298-.16-.64-.24-1.024-.24h-3.392v5.344h3.392c.384 0 .731-.075 1.04-.224.31-.16.566-.363.768-.608.214-.245.374-.528.48-.848.118-.32.176-.651.176-.992zm25.384 13.584c-.938.864-1.994 1.541-3.168 2.032-1.173.48-2.416.72-3.728.72-1.461 0-2.842-.267-4.144-.8-1.301-.533-2.442-1.269-3.424-2.208-.981-.949-1.76-2.064-2.336-3.344-.576-1.28-.864-2.672-.864-4.176 0-.939.112-1.845.336-2.72.235-.885.56-1.712.976-2.48.427-.768.939-1.472 1.536-2.112.608-.651 1.286-1.205 2.032-1.664.747-.459 1.558-.816 2.432-1.072.875-.256 1.798-.384 2.768-.384.886 0 1.744.117 2.576.352.832.235 1.611.565 2.336.992.736.427 1.408.939 2.016 1.536.608.597 1.131 1.253 1.568 1.968.438.704.774 1.461 1.008 2.272.246.8.368 1.627.368 2.48 0 .555-.01 1.008-.032 1.36-.01.352-.09.635-.24.848-.149.203-.4.347-.752.432-.341.075-.848.112-1.52.112h-11.52c.107.683.32 1.253.64 1.712.331.459.71.827 1.136 1.104.427.267.88.459 1.36.576.48.117.934.176 1.36.176.384 0 .779-.037 1.184-.112.406-.085.795-.192 1.168-.32.384-.139.731-.293 1.04-.464.32-.181.576-.368.768-.56.171-.139.315-.24.432-.304.128-.075.262-.112.4-.112.139 0 .278.048.416.144.15.096.315.235.496.416l1.696 1.92c.118.139.192.267.224.384.032.107.048.219.048.336 0 .213-.058.4-.176.56-.117.149-.256.283-.416.4zm-7.696-13.328c-.416 0-.821.085-1.216.256-.384.16-.746.379-1.088.656-.341.277-.65.592-.928.944-.266.352-.485.709-.656 1.072H76.6c-.224-.416-.469-.8-.736-1.152-.256-.352-.554-.661-.896-.928-.33-.267-.714-.475-1.152-.624-.426-.149-.928-.224-1.504-.224zm34.001 14.576c0 .181-.032.357-.096.528-.064.16-.171.288-.32.384-.118.117-.256.192-.416.224-.16.032-.299.048-.416.048h-3.152c-.224 0-.406-.027-.544-.08-.139-.064-.251-.149-.336-.256-.086-.107-.16-.235-.224-.384-.054-.16-.112-.331-.176-.512l-.464-1.2c-.288.288-.603.597-.944.928-.342.32-.72.619-1.136.896-.406.277-.848.507-1.328.688-.48.192-.992.288-1.536.288-.971 0-1.904-.123-2.8-.368-.886-.245-1.718-.592-2.496-1.04-.768-.459-1.467-1.003-2.096-1.632-.63-.64-1.174-1.349-1.632-2.128-.448-.779-.795-1.616-1.04-2.512-.246-.907-.368-1.851-.368-2.832 0-1.483.272-2.859.816-4.128.544-1.28 1.285-2.389 2.224-3.328.938-.949 2.042-1.691 3.312-2.224 1.269-.544 2.629-.816 4.08-.816.661 0 1.269.101 1.824.304.554.192 1.056.448 1.504.768.458.32.869.683 1.232 1.088.373.405.704.816.992 1.232l.624-1.936.256-.64c.074-.171.149-.293.224-.368.085-.085.186-.139.304-.16.117-.032.282-.048.496-.048h2.384c.117 0 .256.016.416.048.16.032.298.107.416.224.149.117.256.251.32.4.064.149.096.32.096.512v18.032zm-15.76-8.96c0 .704.106 1.365.32 1.984.224.608.538 1.136.944 1.584.405.448.89.805 1.456 1.072.576.256 1.21.384 1.904.384.714 0 1.376-.128 1.984-.384.618-.267 1.152-.624 1.6-1.072.458-.448.816-.976 1.072-1.584.256-.619.384-1.28.384-1.984 0-.683-.128-1.333-.384-1.952s-.614-1.163-1.072-1.632c-.448-.469-.982-.837-1.6-1.104-.608-.277-1.27-.416-1.984-.416-.694 0-1.328.139-1.904.416-.566.267-1.051.635-1.456 1.104-.406.469-.72 1.013-.944 1.632-.214.619-.32 1.269-.32 1.952zm32.366 3.888c.149-.107.288-.171.416-.192.138-.032.245-.048.32-.048.181 0 .346.037.496.112.149.075.304.235.464.48l1.792 2.704c.053.085.101.181.144.288.053.107.08.192.08.256 0 .245-.08.448-.24.608-.15.149-.315.283-.496.4-.875.608-1.835 1.099-2.88 1.472-1.035.363-2.134.544-3.296.544-.96 0-1.888-.123-2.784-.368-.886-.245-1.712-.592-2.48-1.04-.768-.459-1.472-1.003-2.112-1.632-.64-.64-1.184-1.349-1.632-2.128-.448-.779-.8-1.616-1.056-2.512-.246-.907-.368-1.851-.368-2.832 0-.981.122-1.925.368-2.832.256-.907.608-1.744 1.056-2.512.448-.779.992-1.483 1.632-2.112.64-.64 1.344-1.184 2.112-1.632.768-.448 1.594-.795 2.48-1.04.896-.245 1.824-.368 2.784-.368 1.162 0 2.234.155 3.216.464.992.309 1.92.768 2.784 1.376l-.048-.048c.234.139.421.304.56.496.138.181.208.411.208.688 0 .192-.064.389-.192.592l-1.424 2.416c-.299.523-.662.784-1.088.784-.096 0-.214-.021-.352-.064-.139-.053-.294-.139-.464-.256-.47-.309-.976-.56-1.52-.752-.534-.203-1.104-.304-1.712-.304-.672 0-1.291.139-1.856.416-.566.267-1.051.635-1.456 1.104-.395.469-.704 1.013-.928 1.632-.224.619-.336 1.269-.336 1.952 0 .704.112 1.365.336 1.984.224.608.533 1.136.928 1.584.405.448.89.805 1.456 1.072.565.256 1.184.384 1.856.384.608 0 1.178-.107 1.712-.32.533-.213 1.04-.485 1.52-.816zm12.646-11.936c.202-.299.448-.592.736-.88.288-.299.624-.56 1.008-.784.394-.235.837-.421 1.328-.56.501-.149 1.066-.224 1.696-.224 1.216 0 2.298.235 3.248.704.96.469 1.77 1.109 2.432 1.92.672.811 1.178 1.76 1.52 2.848.352 1.077.528 2.229.528 3.456v10.48c0 .405-.091.715-.272.928-.171.203-.448.304-.832.304h-3.696c-.459 0-.774-.075-.944-.224-.171-.16-.256-.464-.256-.912v-10.576c0-.459-.091-.885-.272-1.28-.171-.395-.406-.736-.704-1.024-.299-.299-.651-.528-1.056-.688-.395-.171-.816-.256-1.264-.256-.384 0-.763.08-1.136.24-.363.149-.694.368-.992.656-.288.277-.534.613-.736 1.008-.192.395-.304.832-.336 1.312v10.56c0 .181-.038.363-.112.544-.064.181-.166.32-.304.416-.139.085-.272.144-.4.176-.118.032-.256.048-.416.048h-3.616c-.459 0-.79-.112-.992-.336-.203-.224-.304-.523-.304-.896V213.848c0-.363.101-.656.304-.88.202-.224.533-.336.992-.336h3.616c.245 0 .517.085.816.256.138.096.24.235.304.416.074.181.112.352.112.512v6.992zm26.228-4.832c0-.224.058-.4.176-.528.117-.139.293-.208.528-.208h10.224c.736 0 1.429.101 2.08.304.65.203 1.248.485 1.792.848.544.352 1.034.779 1.472 1.28.437.491.805 1.024 1.104 1.6.309.576.544 1.184.704 1.824.16.629.24 1.269.24 1.92 0 .96-.176 1.899-.528 2.816-.342.917-.832 1.733-1.472 2.448-.64.715-1.408 1.296-2.304 1.744-.896.437-1.888.661-2.976.672h-4.848v7.616c0 .459-.246.688-.736.688h-4.752c-.214 0-.384-.053-.512-.16-.128-.117-.192-.293-.192-.528v-22.336zm12.048 7.008c0-.32-.059-.64-.176-.96-.107-.32-.267-.603-.48-.848-.214-.256-.475-.464-.784-.624-.299-.16-.64-.24-1.024-.24h-3.392v5.344h3.392c.384 0 .73-.075 1.04-.224.309-.16.565-.363.768-.608.213-.245.373-.528.48-.848.117-.32.176-.651.176-.992zm8.86-9.12c0-.341.085-.629.256-.864.17-.235.464-.352.88-.352h3.92c.106 0 .218.032.336.096.117.053.224.133.32.24.106.107.192.235.256.384.074.149.112.315.112.496v23.904c0 .405-.118.715-.352.928-.224.203-.518.304-.88.304h-3.712c-.416 0-.71-.101-.88-.304-.171-.213-.256-.523-.256-.928v-23.904zm30.578 23.952c0 .181-.032.357-.096.528-.064.16-.171.288-.32.384-.117.117-.256.192-.416.224-.16.032-.299.048-.416.048h-3.152c-.224 0-.405-.027-.544-.08-.139-.064-.251-.149-.336-.256-.085-.107-.16-.235-.224-.384-.053-.16-.112-.331-.176-.512l-.464-1.2c-.288.288-.603.597-.944.928-.341.32-.72.619-1.136.896-.405.277-.848.507-1.328.688-.48.192-.992.288-1.536.288-.971 0-1.904-.123-2.8-.368-.885-.245-1.717-.592-2.496-1.04-.768-.459-1.467-1.003-2.096-1.632-.629-.64-1.173-1.349-1.632-2.128-.448-.779-.795-1.616-1.04-2.512-.245-.907-.368-1.851-.368-2.832 0-1.483.272-2.859.816-4.128.544-1.28 1.285-2.389 2.224-3.328.939-.949 2.043-1.691 3.312-2.224 1.269-.544 2.629-.816 4.08-.816.661 0 1.269.101 1.824.304.555.192 1.056.448 1.504.768.459.32.869.683 1.232 1.088.373.405.704.816.992 1.232l.624-1.936.256-.64c.075-.171.149-.293.224-.368.085-.085.187-.139.304-.16.117-.032.283-.048.496-.048h2.384c.117 0 .256.016.416.048.16.032.299.107.416.224.149.117.256.251.32.4.064.149.096.32.096.512v18.032zm-15.76-8.96c0 .704.107 1.365.32 1.984.224.608.539 1.136.944 1.584.405.448.891.805 1.456 1.072.576.256 1.211.384 1.904.384.715 0 1.376-.128 1.984-.384.619-.267 1.152-.624 1.6-1.072.459-.448.816-.976 1.072-1.584.256-.619.384-1.28.384-1.984 0-.683-.128-1.333-.384-1.952s-.613-1.163-1.072-1.632c-.448-.469-.981-.837-1.6-1.104-.608-.277-1.269-.416-1.984-.416-.693 0-1.328.139-1.904.416-.565.267-1.051.635-1.456 1.104-.405.469-.72 1.013-.944 1.632-.213.619-.32 1.269-.32 1.952zm19.774-9.904c.139-.117.283-.192.432-.224.16-.032.309-.048.448-.048h2.416c.192 0 .357.037.496.112.139.064.256.155.352.272.096.117.171.251.224.4.064.149.123.304.176.464l.496 2.048c.16-.331.389-.704.688-1.12.309-.427.699-.821 1.168-1.184.469-.373 1.024-.683 1.664-.928.651-.256 1.403-.384 2.256-.384 1.216 0 2.32.235 3.312.704s1.835 1.109 2.528 1.92c.704.811 1.248 1.76 1.632 2.848.384 1.077.576 2.229.576 3.456v10.48c0 .405-.091.715-.272.928-.171.203-.448.304-.832.304h-3.696c-.459 0-.773-.075-.944-.224-.171-.16-.256-.464-.256-.912v-10.416c0-.459-.107-.891-.32-1.296-.203-.416-.475-.779-.816-1.088-.341-.32-.731-.571-1.168-.752-.427-.181-.864-.272-1.312-.272-.384 0-.779.085-1.184.256-.395.171-.763.411-1.104.72-.331.299-.613.656-.848 1.072-.224.405-.352.848-.384 1.328v10.4c0 .181-.037.363-.112.544-.064.181-.165.32-.304.416-.139.085-.272.144-.4.176-.117.032-.256.048-.416.048h-3.616c-.459 0-.789-.112-.992-.336-.203-.224-.304-.523-.304-.896v-17.904c0-.203.043-.389.128-.56.096-.171.224-.304.384-.4l-.096.048zm39.18 17.616c-.938.864-1.994 1.541-3.168 2.032-1.173.48-2.416.72-3.728.72-1.461 0-2.842-.267-4.144-.8-1.301-.533-2.442-1.269-3.424-2.208-.981-.949-1.76-2.064-2.336-3.344-.576-1.28-.864-2.672-.864-4.176 0-.939.112-1.845.336-2.72.235-.885.56-1.712.976-2.48.427-.768.939-1.472 1.536-2.112.608-.651 1.286-1.205 2.032-1.664.747-.459 1.558-.816 2.432-1.072.875-.256 1.798-.384 2.768-.384.886 0 1.744.117 2.576.352.832.235 1.611.565 2.336.992.736.427 1.408.939 2.016 1.536.608.597 1.131 1.253 1.568 1.968.438.704.774 1.461 1.008 2.272.246.8.368 1.627.368 2.48 0 .555-.01 1.008-.032 1.36-.01.352-.09.635-.24.848-.149.203-.4.347-.752.432-.341.075-.848.112-1.52.112h-11.52c.107.683.32 1.253.64 1.712.331.459.71.827 1.136 1.104.427.267.88.459 1.36.576.48.117.934.176 1.36.176.384 0 .779-.037 1.184-.112.406-.085.795-.192 1.168-.32.384-.139.731-.293 1.04-.464.32-.181.576-.368.768-.56.171-.139.315-.24.432-.304.128-.075.262-.112.4-.112.139 0 .278.048.416.144.15.096.315.235.496.416l1.696 1.92c.118.139.192.267.224.384.032.107.048.219.048.336 0 .213-.058.4-.176.56-.117.149-.256.283-.416.4zm-7.696-13.328c-.416 0-.821.085-1.216.256-.384.16-.746.379-1.088.656-.341.277-.65.592-.928.944-.266.352-.485.709-.656 1.072h8.176c-.224-.416-.469-.8-.736-1.152-.256-.352-.554-.661-.896-.928-.33-.267-.714-.475-1.152-.624-.426-.149-.928-.224-1.504-.224zm14.321-7.728c0-.331.106-.576.32-.736.224-.171.538-.331.944-.48l3.632-1.264c.053-.011.101-.016.144-.016h.144c.394 0 .656.117.784.352.138.224.208.523.208.896l-.016 5.04h2.672c.341 0 .618.101.832.304.213.203.32.507.32.912v3.088c0 .448-.107.779-.32.992-.214.203-.491.304-.832.304h-2.672l.016 12.864c0 .405-.118.715-.352.928-.235.203-.56.304-.976.304h-3.616c-.822 0-1.232-.411-1.232-1.232l-.016-12.864h-1.168c-.822 0-1.232-.432-1.232-1.296v-3.088c0-.811.41-1.216 1.232-1.216h1.168l.016-3.792z"/>
    <path fill="#fff" d="M81.42 255.155c.004-.03.02-.063.044-.098.03-.035.066-.067.106-.097.04-.03.082-.053.127-.068.045-.02.087-.03.127-.03h1.92c.085 0 .158.028.218.083.06.05.105.095.135.135l.188.427 3.937 10.155c.04.1.032.183-.022.248-.056.06-.15.09-.285.09h-2.153c-.115 0-.205-.02-.27-.06-.06-.045-.108-.118-.142-.218-.1-.255-.198-.507-.293-.757l-.285-.765h-3.983c-.094.255-.192.51-.292.765l-.285.757c-.065.185-.193.278-.383.278h-2.212c-.095 0-.175-.025-.24-.075-.06-.05-.07-.125-.03-.225l4.073-10.545zm1.364 3.21c-.095.255-.192.53-.292.825l-.285.892c-.095.3-.192.598-.292.893-.096.29-.19.562-.286.817h2.303l-1.148-3.427zm11.042-1.8c.065-.055.133-.09.203-.105s.137-.023.202-.023h1.133c.094 0 .172.015.232.045.065.03.117.073.157.128.04.05.073.11.098.18.03.065.058.137.082.217l.316.908c.14-.18.28-.363.42-.548.145-.19.315-.36.51-.51.195-.155.427-.282.697-.382.27-.1.6-.15.99-.15.685 0 1.315.127 1.89.382.58.25 1.078.598 1.493 1.043.42.44.747.96.982 1.56.235.595.353 1.24.353 1.935 0 .69-.118 1.335-.353 1.935-.235.6-.562 1.122-.982 1.567-.415.44-.913.788-1.493 1.043-.575.255-1.205.383-1.89.383-.325 0-.605-.04-.84-.12-.235-.076-.445-.176-.63-.3-.18-.126-.34-.263-.48-.413-.14-.15-.278-.3-.412-.45v3.495c0 .15-.046.278-.136.383-.09.105-.23.157-.42.157h-1.717c-.06 0-.125-.012-.195-.037-.07-.025-.135-.06-.195-.105s-.11-.103-.15-.173c-.04-.065-.06-.14-.06-.225v-11.393c0-.1.017-.182.052-.247.04-.065.088-.125.143-.18zm7.005 4.68c0-.32-.052-.623-.157-.908-.105-.29-.253-.542-.443-.757-.19-.215-.417-.385-.682-.51-.266-.125-.558-.188-.878-.188-.315 0-.615.06-.9.18-.28.115-.528.275-.743.48-.21.2-.382.438-.517.713-.13.275-.203.567-.218.877v.113c0 .33.063.64.188.93.125.29.295.542.51.757.215.21.468.378.758.503s.597.187.922.187c.32 0 .612-.062.877-.187.266-.125.493-.293.683-.503.19-.215.338-.467.443-.757.105-.29.157-.6.157-.93zm4.015-7.028c0-.16.04-.295.12-.405.08-.11.218-.165.413-.165h1.837c.05 0 .103.015.158.045.055.025.105.063.15.113.05.05.09.11.12.18.035.07.052.147.052.232v11.205c0 .19-.055.335-.165.435-.105.095-.242.143-.412.143h-1.74c-.195 0-.333-.048-.413-.143-.08-.1-.12-.245-.12-.435v-11.205zm14.206 11.228c0 .085-.015.167-.045.247-.03.075-.08.135-.15.18-.055.055-.12.09-.195.105-.075.015-.14.023-.195.023h-1.477c-.105 0-.19-.013-.255-.038-.065-.03-.118-.07-.158-.12-.04-.05-.075-.11-.105-.18l-.082-.24-.218-.562c-.135.135-.282.28-.442.435-.16.15-.338.29-.533.42-.19.13-.397.238-.622.323-.225.09-.465.135-.72.135-.455 0-.893-.058-1.313-.173-.415-.115-.805-.278-1.17-.488-.36-.215-.687-.47-.982-.765-.295-.3-.55-.632-.765-.997-.21-.365-.373-.758-.488-1.178-.115-.425-.172-.867-.172-1.327 0-.695.127-1.34.382-1.935.255-.6.603-1.12 1.043-1.56.44-.445.957-.793 1.552-1.043.595-.255 1.233-.382 1.913-.382.31 0 .595.047.855.142.26.09.495.21.705.36.215.15.407.32.577.51.175.19.33.383.465.578l.293-.908.12-.3c.035-.08.07-.137.105-.172.04-.04.087-.065.142-.075.055-.015.133-.023.233-.023h1.117c.055 0 .12.008.195.023.075.015.14.05.195.105.07.055.12.117.15.187.03.07.045.15.045.24v8.453zm-7.387-4.2c0 .33.05.64.15.93.105.285.252.532.442.742.19.21.418.378.683.503.27.12.567.18.892.18.335 0 .645-.06.93-.18.29-.125.54-.293.75-.503.215-.21.383-.457.503-.742.12-.29.18-.6.18-.93 0-.32-.06-.625-.18-.915-.12-.29-.288-.545-.503-.765-.21-.22-.46-.393-.75-.518-.285-.13-.595-.195-.93-.195-.325 0-.622.065-.892.195-.265.125-.493.298-.683.518-.19.22-.337.475-.442.765-.1.29-.15.595-.15.915zm9.141-4.643c.065-.055.133-.09.203-.105.075-.015.145-.022.21-.022h1.132c.09 0 .168.017.233.052.065.03.12.073.165.128.045.055.08.117.105.187.03.07.057.143.082.218l.233.96c.075-.155.182-.33.322-.525.145-.2.328-.385.548-.555.22-.175.48-.32.78-.435.305-.12.657-.18 1.057-.18.57 0 1.088.11 1.553.33.465.22.86.52 1.185.9.33.38.585.825.765 1.335.18.505.27 1.045.27 1.62v4.912c0 .19-.043.335-.128.435-.08.095-.21.143-.39.143h-1.732c-.215 0-.363-.035-.443-.105-.08-.075-.12-.218-.12-.428v-4.882c0-.215-.05-.418-.15-.608-.095-.195-.222-.365-.382-.51-.16-.15-.343-.267-.548-.352-.2-.085-.405-.128-.615-.128-.18 0-.365.04-.555.12-.185.08-.357.193-.517.338-.155.14-.288.307-.398.502-.105.19-.165.398-.18.623v4.875c0 .085-.017.17-.052.255-.03.085-.078.15-.143.195-.065.04-.127.067-.187.082-.055.015-.12.023-.195.023h-1.695c-.215 0-.37-.053-.465-.158-.095-.105-.143-.245-.143-.42v-8.392c0-.095.02-.183.06-.263.045-.08.105-.142.18-.187l-.045.022zm18.239 8.258c-.44.405-.935.722-1.485.952-.55.226-1.133.338-1.748.338-.685 0-1.332-.125-1.942-.375-.61-.25-1.145-.595-1.605-1.035-.46-.445-.825-.968-1.095-1.568-.27-.6-.405-1.252-.405-1.957 0-.44.052-.865.157-1.275.11-.415.263-.803.458-1.163.2-.36.44-.69.72-.99.285-.305.602-.565.952-.78.35-.215.73-.382 1.14-.502.41-.12.843-.18 1.298-.18.415 0 .817.055 1.207.165.39.11.755.265 1.095.465.345.2.66.44.945.72.285.28.53.587.735.922.205.33.363.685.473 1.065.115.375.172.763.172 1.163 0 .26-.005.472-.015.637-.005.165-.042.298-.112.398-.07.095-.188.162-.353.202-.16.035-.397.053-.712.053h-5.4c.05.32.15.587.3.802.155.215.332.388.532.518.2.125.413.215.638.27.225.055.437.082.637.082.18 0 .365-.017.555-.052.19-.04.373-.09.548-.15.18-.065.342-.138.487-.218.15-.085.27-.172.36-.262.08-.065.148-.113.203-.143.06-.035.122-.052.187-.052s.13.022.195.067c.07.045.148.11.233.195l.795.901c.055.064.09.124.105.179.015.05.022.103.022.158 0 .1-.027.187-.082.262-.055.07-.12.133-.195.188zm-3.608-6.248c-.195 0-.385.04-.57.12-.18.075-.35.178-.51.308-.16.13-.305.277-.435.442-.125.165-.227.333-.307.503h3.832c-.105-.195-.22-.375-.345-.54-.12-.165-.26-.31-.42-.435-.155-.125-.335-.223-.54-.293-.2-.07-.435-.105-.705-.105zm6.585-3.622c0-.155.05-.27.15-.345.105-.08.253-.155.443-.225l1.702-.593c.025-.005.048-.007.068-.007h.067c.185 0 .308.055.368.165.065.105.097.245.097.42l-.007 2.362h1.252c.16 0 .29.048.39.143.1.095.15.237.15.427v1.448c0 .21-.05.365-.15.465-.1.095-.23.142-.39.142h-1.252l.007 6.03c0 .19-.055.335-.165.435-.11.095-.262.143-.457.143H142.6c-.385 0-.578-.193-.578-.578l-.007-6.03h-.548c-.385 0-.577-.202-.577-.607v-1.448c0-.38.192-.57.577-.57h.548l.007-1.777zm10.998 1.62c0-.465.1-.903.3-1.313.2-.41.467-.767.802-1.072.335-.31.72-.553 1.155-.728.435-.18.89-.27 1.365-.27h.15c.17 0 .3.053.39.158.095.1.143.24.143.42v1.432c0 .185-.05.34-.15.465-.095.12-.223.18-.383.18h-.15c-.105 0-.205.02-.3.06-.095.035-.18.085-.255.15-.075.065-.135.143-.18.233-.045.085-.067.18-.067.285v.862h1.177c.17 0 .3.048.39.143.095.09.143.235.143.435v1.372c0 .215-.048.373-.143.473-.09.1-.22.15-.39.15h-1.177v5.377c0 .19-.065.335-.195.435-.125.095-.263.143-.413.143h-1.62c-.18 0-.325-.055-.435-.165-.105-.115-.157-.253-.157-.413v-5.377h-.773c-.175 0-.317-.05-.427-.15-.105-.1-.158-.258-.158-.473v-1.372c0-.2.053-.345.158-.435.11-.095.252-.143.427-.143h.773v-.862zm14.199 9.262c-.065.055-.135.09-.21.105-.07.015-.138.023-.203.023h-1.132c-.09 0-.168-.015-.233-.045-.065-.035-.12-.08-.165-.135-.045-.055-.082-.118-.112-.188s-.055-.142-.075-.217l-.233-.96c-.075.155-.185.332-.33.532-.14.195-.32.38-.54.555-.22.17-.482.315-.787.435-.305.116-.655.173-1.05.173-.57 0-1.088-.11-1.553-.33-.465-.22-.862-.52-1.192-.9-.325-.38-.578-.823-.758-1.328-.18-.51-.27-1.052-.27-1.627v-4.913c0-.19.04-.332.12-.427.085-.1.218-.15.398-.15h1.732c.215 0 .363.037.443.112.08.07.12.21.12.42v4.883c0 .215.047.42.142.615.1.19.23.36.39.51.16.145.34.26.54.345.205.085.413.127.623.127.18 0 .365-.042.555-.127.195-.085.372-.198.532-.338.165-.145.3-.312.405-.502.105-.195.158-.4.158-.615v-4.875c0-.085.015-.17.045-.255.035-.085.085-.15.15-.195.065-.04.125-.068.18-.083.06-.015.127-.022.202-.022h1.695c.215 0 .37.052.465.157.095.105.143.245.143.42v8.393c0 .095-.023.182-.068.262-.04.08-.097.143-.172.188l.045-.023zm1.757-11.655c0-.16.04-.295.12-.405.08-.11.217-.165.412-.165h1.838c.05 0 .102.015.157.045.055.025.105.063.15.113.05.05.09.11.12.18.035.07.053.147.053.232v11.205c0 .19-.055.335-.165.435-.105.095-.243.143-.413.143h-1.74c-.195 0-.332-.048-.412-.143-.08-.1-.12-.245-.12-.435v-11.205zm4.403 0c0-.16.04-.295.12-.405.08-.11.218-.165.413-.165h1.837c.05 0 .103.015.158.045.055.025.105.063.15.113.05.05.09.11.12.18.035.07.052.147.052.232v11.205c0 .19-.055.335-.165.435-.105.095-.242.143-.412.143h-1.74c-.195 0-.333-.048-.413-.143-.08-.1-.12-.245-.12-.435v-11.205zm8.574 7.028c0-.46.057-.903.172-1.328.12-.425.285-.817.495-1.177.215-.365.47-.695.765-.99.3-.3.633-.555.998-.765.365-.21.757-.373 1.177-.488.425-.115.868-.172 1.328-.172.68 0 1.317.127 1.912.382.6.25 1.12.598 1.56 1.043.445.44.795.96 1.05 1.56.26.595.39 1.24.39 1.935 0 .46-.06.902-.18 1.327-.115.42-.28.813-.495 1.178-.21.365-.465.697-.765.997-.295.295-.625.55-.99.765-.365.21-.757.373-1.177.488-.415.115-.85.173-1.305.173-.46 0-.903-.058-1.328-.173-.42-.115-.812-.278-1.177-.488-.365-.215-.698-.47-.998-.765-.295-.3-.55-.632-.765-.997-.21-.365-.375-.758-.495-1.178-.115-.425-.172-.867-.172-1.327zm2.737 0c0 .33.05.64.15.93.105.285.25.532.435.742.19.21.418.378.683.503.27.12.572.18.907.18.325 0 .618-.06.878-.18.265-.125.487-.293.667-.503.185-.21.325-.457.42-.742.1-.29.15-.6.15-.93 0-.32-.05-.625-.15-.915-.095-.29-.235-.545-.42-.765-.18-.22-.402-.393-.667-.518-.26-.13-.553-.195-.878-.195-.335 0-.637.065-.907.195-.265.125-.493.298-.683.518-.185.22-.33.475-.435.765-.1.29-.15.595-.15.915zm9.268-4.635c0-.465.1-.903.3-1.313.2-.41.467-.767.802-1.072.335-.31.72-.553 1.155-.728.435-.18.89-.27 1.365-.27h.15c.17 0 .3.053.39.158.095.1.143.24.143.42v1.432c0 .185-.05.34-.15.465-.095.12-.223.18-.383.18h-.15c-.105 0-.205.02-.3.06-.095.035-.18.085-.255.15-.075.065-.135.143-.18.233-.045.085-.067.18-.067.285v.862h1.177c.17 0 .3.048.39.143.095.09.143.235.143.435v1.372c0 .215-.048.373-.143.473-.09.1-.22.15-.39.15h-1.177v5.377c0 .19-.065.335-.195.435-.125.095-.263.143-.413.143h-1.62c-.18 0-.325-.055-.435-.165-.105-.115-.157-.253-.157-.413v-5.377h-.773c-.175 0-.317-.05-.427-.15-.105-.1-.158-.258-.158-.473v-1.372c0-.2.053-.345.158-.435.11-.095.252-.143.427-.143h.773v-.862zm9.818-2.393c0-.16.04-.295.12-.405.08-.11.218-.165.413-.165h1.837c.05 0 .103.015.158.045.055.025.105.063.15.113.05.05.09.11.12.18.035.07.052.147.052.232v11.205c0 .19-.055.335-.165.435-.105.095-.242.143-.412.143h-1.74c-.195 0-.333-.048-.413-.143-.08-.1-.12-.245-.12-.435v-11.205zm4.111 7.028c0-.46.058-.903.173-1.328.12-.425.285-.817.495-1.177.215-.365.47-.695.765-.99.3-.3.632-.555.997-.765.365-.21.758-.373 1.178-.488.425-.115.867-.172 1.327-.172.68 0 1.318.127 1.913.382.6.25 1.12.598 1.56 1.043.445.44.795.96 1.05 1.56.26.595.39 1.24.39 1.935 0 .46-.06.902-.18 1.327-.115.42-.28.813-.495 1.178-.21.365-.465.697-.765.997-.295.295-.625.55-.99.765-.365.21-.758.373-1.178.488-.415.115-.85.173-1.305.173-.46 0-.902-.058-1.327-.173-.42-.115-.813-.278-1.178-.488-.365-.215-.697-.47-.997-.765-.295-.3-.55-.632-.765-.997-.21-.365-.375-.758-.495-1.178-.115-.425-.173-.867-.173-1.327zm2.738 0c0 .33.05.64.15.93.105.285.25.532.435.742.19.21.417.378.682.503.27.12.573.18.908.18.325 0 .617-.06.877-.18.265-.125.488-.293.668-.503.185-.21.325-.457.42-.742.1-.29.15-.6.15-.93 0-.32-.05-.625-.15-.915-.095-.29-.235-.545-.42-.765-.18-.22-.403-.393-.668-.518-.26-.13-.552-.195-.877-.195-.335 0-.638.065-.908.195-.265.125-.492.298-.682.518-.185.22-.33.475-.435.765-.1.29-.15.595-.15.915zm7.195-4.028c-.1-.205-.12-.38-.06-.525.065-.145.215-.217.45-.217h1.92c.13 0 .242.035.337.105.1.07.17.17.21.3.085.265.178.562.278.892l.322 1.02c.115.345.228.69.338 1.035.11.34.21.655.3.945.095.285.177.535.247.75.075.21.13.36.165.45l1.59-5.092c.065-.16.138-.268.218-.323.085-.055.202-.082.352-.082h1.973c.145 0 .255.017.33.052.075.035.125.083.15.143.025.06.03.13.015.21-.015.075-.04.155-.075.24l-3.57 8.557c-.055.09-.12.168-.195.233-.075.06-.188.09-.338.09h-.892c-.2 0-.343-.028-.428-.083-.08-.06-.14-.14-.18-.24l-3.457-8.46zm17.415 7.643c-.44.405-.935.722-1.485.952-.55.226-1.132.338-1.747.338-.685 0-1.333-.125-1.943-.375-.61-.25-1.145-.595-1.605-1.035-.46-.445-.825-.968-1.095-1.568-.27-.6-.405-1.252-.405-1.957 0-.44.053-.865.158-1.275.11-.415.262-.803.457-1.163.2-.36.44-.69.72-.99.285-.305.603-.565.953-.78.35-.215.73-.382 1.14-.502.41-.12.842-.18 1.297-.18.415 0 .818.055 1.208.165.39.11.755.265 1.095.465.345.2.66.44.945.72.285.28.53.587.735.922.205.33.362.685.472 1.065.115.375.173.763.173 1.163 0 .26-.005.472-.015.637-.005.165-.043.298-.113.398-.07.095-.187.162-.352.202-.16.035-.398.053-.713.053h-5.4c.05.32.15.587.3.802.155.215.333.388.533.518.2.125.412.215.637.27.225.055.438.082.638.082.18 0 .365-.017.555-.052.19-.04.372-.09.547-.15.18-.065.343-.138.488-.218.15-.085.27-.172.36-.262.08-.065.147-.113.202-.143.06-.035.123-.052.188-.052s.13.022.195.067c.07.045.147.11.232.195l.795.901c.055.064.09.124.105.179.015.05.023.103.023.158 0 .1-.028.187-.083.262-.055.07-.12.133-.195.188zm-3.607-6.248c-.195 0-.385.04-.57.12-.18.075-.35.178-.51.308-.16.13-.305.277-.435.442-.125.165-.228.333-.308.503h3.833c-.105-.195-.22-.375-.345-.54-.12-.165-.26-.31-.42-.435-.155-.125-.335-.223-.54-.293-.2-.07-.435-.105-.705-.105z"/>
    <path fill="#EE9F9B" d="M174.807 121.416c.364-2.185 8.983-35.447-11.533-53.474-18.148-15.964-49.225-12.868-65.067 14.567-11.776 20.455-2.003 51.896 11.896 71.198 14.446 20.091 30.774 34.779 35.144 35.811 4.37.971 34.355-10.015 49.893-22.154 16.874-13.172 37.875-41.821 29.438-68.77-8.436-27.01-30.955-38.725-54.202-22.094"/>
    <path fill="#FFADA8" d="M170.437 76.5c-1.821-3.035-4.189-5.948-7.102-8.558-1.518-1.336-3.096-2.489-4.734-3.52-24.158 12.746-40.607 38.117-40.607 67.312 0 22.883 10.136 43.46 26.161 57.359.424.243.849.365 1.153.425 4.37.971 34.355-10.015 49.893-22.154 16.874-13.172 37.875-41.821 29.438-68.77-8.437-26.95-31.016-38.725-54.202-22.094z"/>
    <path fill="#48D380" d="M199.632 72.555c-6.859-2.246-15.842-4.31-22.519-.183l22.519.183z"/>
    <path fill="#fff" d="M214.685 122.448c-.122 0-.243 0-.364-.061-.972-.182-1.639-1.153-1.396-2.124 1.335-6.434 1.881-11.411.789-17.542-1.214-6.737-3.764-11.957-7.405-15.053-.789-.668-.85-1.82-.182-2.55.667-.788 1.82-.849 2.549-.181 4.249 3.702 7.223 9.59 8.619 17.177 1.335 7.466.425 13.232-.789 18.938-.243.789-.971 1.396-1.821 1.396z" opacity=".7"/>
    <path fill="#EE9F9B" d="M170.437 76.5c11.107 18.391 4.734 43.034 4.37 44.977 0 0 10.622-13.536 11.714-26.829 1.093-13.292-2.246-19.787-4.249-24.218-3.884 1.153-7.829 3.217-11.835 6.07z"/>
    <path fill="#48D380" d="M173.229 73.04c-.607-.546-.668-1.457-.182-2.124 2.488-3.278 10.136-12.504 18.209-11.836 7.83.667 15.478 7.405 18.27 10.136.667.607.607 1.64 0 2.307-3.339 3.217-13.111 12.018-19.059 11.836-5.949-.182-14.325-7.587-17.238-10.319z"/>
    <path fill="#AE7C41" d="M172.136 79.656c.243.486 12.868-20.758 12.079-23.49-.789-2.731-9.408-7.465-10.926-6.373-1.578 1.093-9.469 17.177-8.679 19.363.242.606 1.699 2.427 3.399 4.491 1.699 2.124 3.52 4.917 4.127 6.01z"/>
    <path fill="#fff" d="M226.581 108.427c-.06 0-.06 0-.121-.061.182 3.096.061 6.191-.303 9.287 8.558 4.188 10.257 7.708 9.711 11.107-1.578 8.862-36.722 15.175-81.091 7.345-44.37-7.83-75.265-25.797-73.687-34.658.607-3.339 3.217-6.01 12.322-7.041.182 0 .364-.061.546-.061.607-3.096 1.517-6.01 2.792-8.801-25.068-.304-37.45 7.89-38.664 14.81-2.125 11.957 35.386 44.977 93.292 55.174 57.905 10.197 104.46-8.012 106.523-19.97 1.154-6.858-7.708-18.876-31.32-27.131z"/>
    <path stroke="#FFADA8" stroke-linecap="round" stroke-linejoin="round" stroke-miterlimit="10" stroke-opacity=".5" stroke-width=".8" d="M112.774 133.252c-27.01-10.744-44.188-24.947-42.549-34.173.971-5.462 8.437-7.742 20.334-9.199"/>
    <path stroke="#FFADA8" stroke-linecap="round" stroke-linejoin="round" stroke-miterlimit="10" stroke-opacity=".5" stroke-width="1.5" d="M237.568 140.839c-12.443 5.463-33.991 8.619-59.241 6.98"/>
    <path fill="#FFB13D" d="M79.885 69.165l-1.837.677c-1.486.548-2.658 1.72-3.206 3.207l-.677 1.836c-.026.07-.091.115-.165.115-.074 0-.14-.046-.165-.115l-.677-1.836c-.548-1.486-1.72-2.658-3.207-3.207l-1.836-.677C68.045 69.14 68 69.074 68 69c0-.073.046-.14.115-.165l1.836-.677c1.487-.548 2.659-1.72 3.207-3.207l.677-1.836c.026-.07.091-.115.165-.115.074 0 .14.046.165.115l.677 1.836c.549 1.487 1.72 2.659 3.207 3.207l1.836.677c.07.026.115.092.115.165 0 .074-.046.14-.115.165zM223.923 188.11l-1.224.451c-.991.366-1.772 1.147-2.137 2.138l-.452 1.224c-.017.046-.061.077-.11.077s-.093-.031-.11-.077l-.451-1.224c-.366-.991-1.147-1.772-2.138-2.137l-1.224-.452c-.046-.017-.077-.061-.077-.11s.031-.093.077-.11l1.224-.451c.991-.366 1.772-1.147 2.138-2.138l.451-1.224c.017-.046.061-.077.11-.077s.093.031.11.077l.452 1.224c.365.991 1.146 1.772 2.137 2.138l1.224.451c.046.017.077.061.077.11s-.031.093-.077.11z"/>
    <path fill="#FFF9F8" d="M215.51 128.07l-1.153 1.153c-.933.934-1.41 2.23-1.306 3.546l.129 1.626c.005.061-.029.119-.085.145-.055.025-.121.014-.164-.03l-1.154-1.152c-.934-.934-2.23-1.411-3.546-1.307l-1.626.129c-.061.005-.119-.029-.145-.084-.025-.056-.014-.122.03-.165l1.152-1.154c.934-.934 1.411-2.23 1.307-3.547l-.129-1.625c-.005-.061.029-.119.085-.145.055-.025.121-.014.165.03l1.153 1.152c.934.934 2.23 1.411 3.546 1.307l1.626-.129c.061-.005.119.029.145.085.026.055.014.121-.03.165z"/>
    <path fill="#FFD43D" d="M86.885 161.165l-1.837.677c-1.486.548-2.658 1.72-3.206 3.207l-.677 1.836c-.026.069-.091.115-.165.115-.074 0-.14-.046-.165-.115l-.677-1.836c-.548-1.486-1.72-2.658-3.207-3.207l-1.836-.677c-.07-.025-.115-.091-.115-.165 0-.073.046-.139.115-.165l1.836-.677c1.487-.548 2.659-1.72 3.207-3.207l.677-1.836c.026-.069.091-.115.165-.115.074 0 .14.046.165.115l.677 1.836c.549 1.487 1.72 2.659 3.207 3.207l1.836.677c.07.026.115.092.115.165 0 .074-.046.14-.115.165zM120.885 32.165l-1.837.677c-1.486.548-2.658 1.72-3.206 3.207l-.677 1.836c-.025.07-.091.115-.165.115-.074 0-.14-.046-.165-.115l-.677-1.836c-.548-1.486-1.72-2.658-3.207-3.207l-1.836-.677c-.069-.025-.115-.091-.115-.165 0-.073.046-.14.115-.165l1.836-.677c1.487-.548 2.659-1.72 3.207-3.207l.677-1.836c.025-.07.091-.115.165-.115.074 0 .14.046.165.115l.677 1.836c.548 1.487 1.72 2.659 3.207 3.207l1.836.677c.069.026.115.091.115.165 0 .074-.046.14-.115.165zM36.923 114.11l-1.224.451c-.991.366-1.772 1.147-2.137 2.138l-.452 1.224c-.017.046-.061.077-.11.077s-.093-.031-.11-.077l-.451-1.224c-.366-.991-1.147-1.772-2.138-2.137l-1.224-.452c-.046-.017-.077-.061-.077-.11s.03-.093.077-.11l1.224-.451c.99-.366 1.772-1.147 2.138-2.138l.451-1.224c.017-.046.061-.077.11-.077s.093.031.11.077l.452 1.224c.365.991 1.146 1.772 2.137 2.138l1.224.451c.046.017.077.061.077.11s-.03.093-.077.11z"/>
    <path fill="#FFB13D" d="M211.923 42.11l-1.224.452c-.991.365-1.772 1.146-2.137 2.137l-.452 1.224c-.017.046-.061.077-.11.077s-.093-.03-.11-.077l-.451-1.224c-.366-.99-1.147-1.772-2.138-2.137l-1.224-.452c-.046-.017-.077-.06-.077-.11 0-.049.031-.093.077-.11l1.224-.451c.991-.366 1.772-1.147 2.138-2.138l.451-1.224c.017-.046.061-.077.11-.077s.093.03.11.077l.452 1.224c.365.991 1.146 1.772 2.137 2.137l1.224.452c.046.017.077.061.077.11 0 .05-.031.093-.077.11z"/>
    <path fill="#FFF9F8" d="M215.51 128.07l-1.153 1.153c-.933.934-1.41 2.23-1.306 3.546l.129 1.626c.005.061-.029.119-.085.145-.055.025-.121.014-.164-.03l-1.154-1.152c-.934-.934-2.23-1.411-3.546-1.307l-1.626.129c-.061.005-.119-.029-.145-.084-.025-.056-.014-.122.03-.165l1.152-1.154c.934-.934 1.411-2.23 1.307-3.547l-.129-1.625c-.005-.061.029-.119.085-.145.055-.025.121-.014.165.03l1.153 1.152c.934.934 2.23 1.411 3.546 1.307l1.626-.129c.061-.005.119.029.145.085.026.055.014.121-.03.165z"/>
    <path fill="#FFB13D" d="M285.923 71.11l-1.224.451c-.991.366-1.772 1.147-2.137 2.138l-.452 1.224c-.017.046-.061.077-.11.077s-.093-.03-.11-.077l-.451-1.224c-.366-.99-1.147-1.772-2.138-2.137l-1.224-.452c-.046-.017-.077-.06-.077-.11 0-.049.031-.093.077-.11l1.224-.451c.991-.366 1.772-1.147 2.138-2.138l.451-1.224c.017-.046.061-.077.11-.077s.093.03.11.077l.452 1.224c.365.991 1.146 1.772 2.137 2.138l1.224.451c.046.017.077.061.077.11 0 .05-.031.093-.077.11z"/>
    <path fill="#FFD43D" d="M267.885 112.165l-1.837.677c-1.486.548-2.658 1.72-3.206 3.207l-.677 1.836c-.025.069-.091.115-.165.115-.074 0-.14-.046-.165-.115l-.677-1.836c-.548-1.486-1.72-2.658-3.207-3.207l-1.836-.677c-.069-.025-.115-.091-.115-.165 0-.073.046-.139.115-.165l1.836-.677c1.487-.548 2.659-1.72 3.207-3.207l.677-1.836c.025-.069.091-.115.165-.115.074 0 .14.046.165.115l.677 1.836c.548 1.487 1.72 2.659 3.207 3.207l1.836.677c.069.026.115.092.115.165 0 .074-.046.14-.115.165z"/>
</svg>
